<svg xmlns="http://www.w3.org/2000/svg" width="512" height="512" viewBox="0 0 512 512">
  <rect width="512" height="512" rx="90" fill="#1a1a2e"/>
  <!-- Book shape -->
  <path d="M130 140 L256 170 L382 140 L382 340 L256 370 L130 340 Z" fill="#16213e" stroke="#00d9ff" stroke-width="10" stroke-linejoin="round"/>
  <line x1="256" y1="170" x2="256" y2="370" stroke="#00d9ff" stroke-width="6"/>
  <!-- Lines on book pages -->
  <line x1="155" y1="190" x2="230" y2="200" stroke="#00d9ff" stroke-width="4" opacity="0.5"/>
  <line x1="155" y1="220" x2="230" y2="230" stroke="#00d9ff" stroke-width="4" opacity="0.5"/>
  <line x1="155" y1="250" x2="230" y2="260" stroke="#00d9ff" stroke-width="4" opacity="0.5"/>
  <line x1="282" y1="200" x2="357" y2="190" stroke="#00d9ff" stroke-width="4" opacity="0.5"/>
  <line x1="282" y1="230" x2="357" y2="220" stroke="#00d9ff" stroke-width="4" opacity="0.5"/>
  <line x1="282" y1="260" x2="357" y2="250" stroke="#00d9ff" stroke-width="4" opacity="0.5"/>
  <!-- Star -->
  <polygon points="256,60 272,105 320,105 282,135 296,180 256,152 216,180 230,135 192,105 240,105" fill="#00d9ff"/>
  <!-- Checkmark -->
  <circle cx="256" cy="430" r="50" fill="#00ff88"/>
  <path d="M230 430 L250 450 L285 410" fill="none" stroke="#1a1a2e" stroke-width="12" stroke-linecap="round" stroke-linejoin="round"/>
</svg>
